<svg id="Capa_1" enable-background="new 0 0 512 512" height="512" viewBox="0 0 512 512" width="512" xmlns="http://www.w3.org/2000/svg"><g><g><path d="m261.31 512h-170.139c-11.643 0-21.081-9.438-21.081-21.081v-269.018c0-11.643 9.438-21.081 21.081-21.081h170.139c11.643 0 21.081 9.438 21.081 21.081v269.017c0 11.644-9.438 21.082-21.081 21.082z" fill="#ff993a"/><path d="m112.256 415.509v-147.314c0-11.643-9.438-21.081-21.081-21.081-11.643 0-21.081 9.438-21.081 21.081v147.314c0 11.643 9.438 21.081 21.081 21.081 11.643 0 21.081-9.438 21.081-21.081z" fill="#ffaf40"/><path d="m70.094 309.696v17.94c0 11.643 9.438 21.081 21.081 21.081 11.643 0 21.081-9.438 21.081-21.081v-17.94c0-11.643-9.438-21.081-21.081-21.081-11.643 0-21.081 9.439-21.081 21.081z" fill="#ffc751"/><path d="m282.392 221.901v269.018c0 11.647-9.444 21.081-21.081 21.081h-131.073c79.729-45.651 133.444-131.558 133.444-230.007 0-28.312-4.438-55.591-12.67-81.173h10.298c11.638 0 21.082 9.434 21.082 21.081z" fill="#f97c15"/><path d="m234.133 266.187h-.665c-11.85 0-22.55-6.543-28.54-16.768-5.766-9.844-16.455-16.455-28.687-16.455s-22.921 6.611-28.687 16.455c-5.99 10.225-16.69 16.768-28.54 16.768h-.665c-10.129 0-18.34 8.211-18.34 18.34v154.115c0 10.129 8.211 18.34 18.34 18.34h.665c11.85 0 22.55 6.543 28.54 16.768 5.766 9.844 16.455 16.455 28.687 16.455s22.921-6.611 28.687-16.455c5.99-10.225 16.69-16.768 28.54-16.768h.665c10.129 0 18.34-8.211 18.34-18.34v-154.115c-.001-10.129-8.212-18.34-18.34-18.34z" fill="#706c64"/><path d="m252.467 348.884v89.753c0 10.13-8.211 18.341-18.33 18.341h-.675c-11.848 0-22.546 6.546-28.533 16.77-5.766 9.845-16.454 16.454-28.692 16.454-12.227 0-22.915-6.609-28.681-16.454-1.781-3.036-3.984-5.755-6.504-8.063 55.613-15.116 98.882-60.187 111.415-116.801z" fill="#595751"/><g><g><g><g><g><path d="m209.464 200.82v-169.039h-66.442v169.039l29.536 16.957c3.414 1.96 7.635 1.854 10.947-.274z" fill="#fe255f"/><path d="m209.462 127.541v73.278l-25.962 16.687c-3.31 2.129-7.526 2.235-10.941.274l-23.759-13.64c30.726-14.314 53.652-42.552 60.662-76.599z" fill="#e01152"/><path d="m143.021 31.781h66.442v54.89h-66.442z" fill="#ffaf40"/><path d="m143.021 31.781h66.442v35.025h-66.442z" fill="#ff993a"/></g></g></g></g></g><g><path d="m363.309 399.443h23.534v104.894h-23.534z" fill="#b6f0ff"/><path d="m363.309 399.443h23.534v30.834h-23.534z" fill="#73e1ff"/><path d="m400.536 511.996h-50.921c-6.719 0-12.166-5.447-12.166-12.166 0-6.719 5.447-12.166 12.166-12.166h50.921c6.719 0 12.166 5.447 12.166 12.166 0 6.719-5.447 12.166-12.166 12.166z" fill="#73e1ff"/><path d="m441.91 258.674v92.517c0 36.771-29.252 67.453-66.021 67.891-37.288.444-67.649-29.644-67.649-66.83v-93.578c0-5.821 4.719-10.541 10.541-10.541h112.589c5.821 0 10.54 4.719 10.54 10.541z" fill="#dcfeff"/><path d="m441.91 258.67v92.52c0 36.77-29.25 67.45-66.02 67.89-37.29.45-67.65-29.64-67.65-66.83v-35.81c6.24 1.46 12.74 2.23 19.42 2.23 42.02 0 76.92-30.48 83.8-70.54h19.91c5.82 0 10.54 4.72 10.54 10.54z" fill="#b6f0ff"/><path d="m342.55 338.882v-59.578c0-9.474-7.681-17.155-17.155-17.155-9.474 0-17.155 7.681-17.155 17.155v59.578c0 9.474 7.681 17.155 17.155 17.155 9.474 0 17.155-7.68 17.155-17.155z" fill="#eefdff"/><path d="m308.24 313.944v38.308c0 36.915 29.92 66.835 66.835 66.835s66.835-29.92 66.835-66.835v-59.261c-10.858-.095-32.495 2.718-58.997 21.812-29.205 21.032-61.064 19.204-74.673-.859z" fill="#ffc751"/><path d="m441.91 313.944v38.308c0 36.915-29.92 66.835-66.835 66.835s-66.835-29.92-66.835-66.835v-59.261c10.858-.095 32.495 2.718 58.997 21.812 29.205 21.032 61.065 19.204 74.673-.859z" fill="#fff370"/></g><path d="m212.478 47.879h-72.638c-5.821 0-10.541-4.719-10.541-10.541v-26.797c0-5.822 4.719-10.541 10.54-10.541h72.638c5.821 0 10.541 4.719 10.541 10.541v26.797c0 5.821-4.719 10.541-10.54 10.541z" fill="#ffc751"/><g fill="#f9f8f2"><path d="m176.238 303.073c11.56 0 22.181 6.631 29.644 17.047 2.011 2.807 5.202 4.529 8.655 4.529h14.26c4.004 0 6.577-4.307 4.629-7.805-2.356-4.23-5.116-8.211-8.261-11.885-12.682-14.81-30.063-22.968-48.927-22.968-18.851 0-36.232 8.158-48.927 22.968-3.136 3.673-5.898 7.653-8.257 11.883-1.951 3.498.622 7.807 4.628 7.807h14.27c3.454 0 6.645-1.723 8.656-4.531 7.46-10.415 18.07-17.045 29.63-17.045z"/><path d="m176.238 420.095c-11.56 0-22.17-6.63-29.63-17.046-2.011-2.808-5.203-4.531-8.656-4.531h-14.267c-4.005 0-6.579 4.309-4.627 7.808 2.358 4.227 5.118 8.206 8.254 11.872 12.695 14.82 30.076 22.979 48.927 22.979 18.864 0 36.245-8.158 48.927-22.979 3.144-3.666 5.903-7.646 8.258-11.874 1.949-3.498-.624-7.805-4.629-7.805h-14.258c-3.453 0-6.644 1.722-8.655 4.529-7.464 10.416-18.084 17.047-29.644 17.047z"/></g><path d="m212.207 374.45h-71.928c-5.821 0-10.541-4.719-10.541-10.541v-4.651c0-5.821 4.719-10.541 10.541-10.541h71.928c5.821 0 10.541 4.719 10.541 10.541v4.651c-.001 5.822-4.72 10.541-10.541 10.541z" fill="#f9f8f2"/><circle cx="176.239" cy="339.38" fill="#ffc751" r="19.069"/><path d="m223.017 10.541v26.794c0 5.829-4.722 10.541-10.541 10.541h-42.268c18.889-8.359 32.518-26.426 34.552-47.876h7.716c5.819 0 10.541 4.722 10.541 10.541z" fill="#ffaf40"/></g><path d="m342.55 300.63v38.25c0 4.74-1.92 9.03-5.02 12.14-3.11 3.1-7.39 5.02-12.13 5.02-9.48 0-17.16-7.68-17.16-17.16v-45.89c7.24-.06 19.26 1.17 34.31 7.64z" fill="#fff7c7"/><path d="m441.91 318.41v33.84c0 36.92-29.92 66.84-66.83 66.84-28.17 0-52.27-17.42-62.1-42.08 12.81 7.43 27.68 11.68 43.56 11.68 42.33 0 77.59-30.23 85.37-70.28z" fill="#ffe059"/></g></svg>